<svg width="1500" height="500" viewBox="0 0 1500 500" fill="none" xmlns="http://www.w3.org/2000/svg">
<g clip-path="url(#clip0)">
<rect width="1500" height="500" fill="#1B36FF"/>
<path d="M656.4 178.3V209H647.2V137.4H689V146.2H656.4V169.7H685.8V178.3H656.4ZM707.046 137.4V209H697.846V137.4H707.046ZM761.256 209H752.456V202.2H752.056C750.656 204.6 748.49 206.6 745.556 208.2C742.69 209.8 739.69 210.6 736.556 210.6C730.556 210.6 725.923 208.9 722.656 205.5C719.456 202.033 717.856 197.133 717.856 190.8V160H727.056V190.2C727.256 198.2 731.29 202.2 739.156 202.2C742.823 202.2 745.89 200.733 748.356 197.8C750.823 194.8 752.056 191.233 752.056 187.1V160H761.256V209ZM791.855 209.8C787.855 209.8 784.522 208.567 781.855 206.1C779.255 203.633 777.922 200.2 777.855 195.8V168.4H769.255V160H777.855V145H787.055V160H799.055V168.4H787.055V192.8C787.055 196.067 787.689 198.3 788.955 199.5C790.222 200.633 791.655 201.2 793.255 201.2C793.989 201.2 794.689 201.133 795.355 201C796.089 200.8 796.755 200.567 797.355 200.3L800.255 208.5C797.855 209.367 795.055 209.8 791.855 209.8ZM827.707 209.8C823.707 209.8 820.374 208.567 817.707 206.1C815.107 203.633 813.774 200.2 813.707 195.8V168.4H805.107V160H813.707V145H822.907V160H834.907V168.4H822.907V192.8C822.907 196.067 823.54 198.3 824.807 199.5C826.074 200.633 827.507 201.2 829.107 201.2C829.84 201.2 830.54 201.133 831.207 201C831.94 200.8 832.607 200.567 833.207 200.3L836.107 208.5C833.707 209.367 830.907 209.8 827.707 209.8ZM865.17 210.6C857.97 210.6 852.037 208.133 847.37 203.2C842.704 198.267 840.37 192.033 840.37 184.5C840.37 177.033 842.637 170.833 847.17 165.9C851.704 160.9 857.504 158.4 864.57 158.4C871.837 158.4 877.604 160.767 881.87 165.5C886.204 170.167 888.37 176.733 888.37 185.2L888.27 186.2H849.77C849.904 191 851.504 194.867 854.57 197.8C857.637 200.733 861.304 202.2 865.57 202.2C871.437 202.2 876.037 199.267 879.37 193.4L887.57 197.4C885.37 201.533 882.304 204.767 878.37 207.1C874.504 209.433 870.104 210.6 865.17 210.6ZM850.47 178.6H878.57C878.304 175.2 876.904 172.4 874.37 170.2C871.904 167.933 868.57 166.8 864.37 166.8C860.904 166.8 857.904 167.867 855.37 170C852.904 172.133 851.27 175 850.47 178.6ZM905.984 209H896.784V160H905.584V168H905.984C906.917 165.4 908.817 163.2 911.684 161.4C914.617 159.533 917.484 158.6 920.284 158.6C922.95 158.6 925.217 159 927.084 159.8L924.284 168.7C923.15 168.233 921.35 168 918.884 168C915.417 168 912.384 169.4 909.784 172.2C907.25 175 905.984 178.267 905.984 182V209Z" fill="white"/>
<path d="M680.9 349.6C670.3 349.6 661.433 346.033 654.3 338.9C647.233 331.767 643.7 322.867 643.7 312.2C643.7 301.533 647.233 292.667 654.3 285.6C661.367 278.4 670.233 274.8 680.9 274.8C691.7 274.8 700.467 278.7 707.2 286.5L700.6 292.9C695.467 286.7 688.9 283.6 680.9 283.6C672.967 283.6 666.333 286.267 661 291.6C655.733 296.867 653.1 303.733 653.1 312.2C653.1 320.667 655.733 327.533 661 332.8C666.333 338.133 672.967 340.8 680.9 340.8C689.233 340.8 696.467 337.3 702.6 330.3L709.3 336.8C705.9 340.867 701.733 344.033 696.8 346.3C691.867 348.5 686.567 349.6 680.9 349.6ZM713.698 323.5C713.698 315.967 716.065 309.733 720.798 304.8C725.598 299.867 731.632 297.4 738.898 297.4C746.165 297.4 752.165 299.867 756.898 304.8C761.698 309.733 764.098 315.967 764.098 323.5C764.098 331.1 761.698 337.333 756.898 342.2C752.165 347.133 746.165 349.6 738.898 349.6C731.632 349.6 725.598 347.133 720.798 342.2C716.065 337.267 713.698 331.033 713.698 323.5ZM722.898 323.5C722.898 328.767 724.432 333.033 727.498 336.3C730.565 339.567 734.365 341.2 738.898 341.2C743.432 341.2 747.232 339.567 750.298 336.3C753.365 333.033 754.898 328.767 754.898 323.5C754.898 318.3 753.365 314.067 750.298 310.8C747.165 307.467 743.365 305.8 738.898 305.8C734.432 305.8 730.632 307.467 727.498 310.8C724.432 314.067 722.898 318.3 722.898 323.5ZM771.479 299H780.279V305.8H780.679C782.079 303.4 784.212 301.4 787.079 299.8C790.012 298.2 793.046 297.4 796.179 297.4C802.179 297.4 806.779 299.133 809.979 302.6C813.246 306 814.879 310.867 814.879 317.2V348H805.679V317.8C805.479 309.8 801.446 305.8 793.579 305.8C789.912 305.8 786.846 307.3 784.379 310.3C781.912 313.233 780.679 316.767 780.679 320.9V348H771.479V299ZM858.451 348H849.251V276.4H858.451V348ZM871.284 299H880.084V305.8H880.484C881.884 303.4 884.017 301.4 886.884 299.8C889.817 298.2 892.85 297.4 895.984 297.4C901.984 297.4 906.584 299.133 909.784 302.6C913.05 306 914.684 310.867 914.684 317.2V348H905.484V317.8C905.284 309.8 901.25 305.8 893.384 305.8C889.717 305.8 886.65 307.3 884.184 310.3C881.717 313.233 880.484 316.767 880.484 320.9V348H871.284V299ZM947.483 341.2C952.016 341.2 955.716 339.567 958.583 336.3C961.583 333.033 963.083 328.767 963.083 323.5C963.083 318.367 961.583 314.133 958.583 310.8C955.649 307.467 951.949 305.8 947.483 305.8C943.083 305.8 939.383 307.467 936.383 310.8C933.383 314.133 931.883 318.367 931.883 323.5C931.883 328.7 933.383 332.933 936.383 336.2C939.383 339.533 943.083 341.2 947.483 341.2ZM945.983 349.6C939.583 349.6 934.083 347.067 929.483 342C924.949 336.867 922.683 330.7 922.683 323.5C922.683 316.3 924.949 310.133 929.483 305C934.083 299.933 939.583 297.4 945.983 297.4C949.583 297.4 952.849 298.167 955.783 299.7C958.783 301.233 961.083 303.267 962.683 305.8H963.083L962.683 299V276.4H971.883V348H963.083V341.2H962.683C961.083 343.733 958.783 345.767 955.783 347.3C952.849 348.833 949.583 349.6 945.983 349.6ZM995 282.1C995 283.9 994.367 285.433 993.1 286.7C991.833 287.967 990.3 288.6 988.5 288.6C986.7 288.6 985.167 287.967 983.9 286.7C982.633 285.433 982 283.9 982 282.1C982 280.3 982.633 278.767 983.9 277.5C985.167 276.233 986.7 275.6 988.5 275.6C990.3 275.6 991.833 276.233 993.1 277.5C994.367 278.767 995 280.3 995 282.1ZM993.1 299V348H983.9V299H993.1ZM1011.28 333C1011.28 335.4 1012.28 337.4 1014.28 339C1016.35 340.6 1018.75 341.4 1021.48 341.4C1025.35 341.4 1028.78 339.967 1031.78 337.1C1034.85 334.233 1036.38 330.867 1036.38 327C1033.52 324.733 1029.52 323.6 1024.38 323.6C1020.65 323.6 1017.52 324.5 1014.98 326.3C1012.52 328.1 1011.28 330.333 1011.28 333ZM1023.18 297.4C1029.98 297.4 1035.35 299.233 1039.28 302.9C1043.22 306.5 1045.18 311.467 1045.18 317.8V348H1036.38V341.2H1035.98C1032.18 346.8 1027.12 349.6 1020.78 349.6C1015.38 349.6 1010.85 348 1007.18 344.8C1003.58 341.6 1001.78 337.6 1001.78 332.8C1001.78 327.733 1003.68 323.7 1007.48 320.7C1011.35 317.7 1016.48 316.2 1022.88 316.2C1028.35 316.2 1032.85 317.2 1036.38 319.2V317.1C1036.38 313.9 1035.12 311.2 1032.58 309C1030.05 306.733 1027.08 305.6 1023.68 305.6C1018.55 305.6 1014.48 307.767 1011.48 312.1L1003.38 307C1007.85 300.6 1014.45 297.4 1023.18 297.4Z" fill="white"/>
<g filter="url(#filter0_d)">
<path d="M527.982 242.341H600L534.241 311.704L532.385 313.662L534.241 315.621L599.998 385H527.98L498.742 354.159L460.355 313.663L527.982 242.341ZM400 250L527.98 115H599.998L436.016 287.992L400 250Z" stroke="white" stroke-width="8"/>
</g>
<circle cx="1320.5" cy="102.5" r="12.5" fill="white"/>
<circle cx="1406.5" cy="102.5" r="12.5" fill="white"/>
<circle cx="1444.5" cy="102.5" r="12.5" fill="#5C6FFC"/>
<circle cx="1487.5" cy="102.5" r="12.5" fill="white"/>
<circle cx="1363.5" cy="102.5" r="12.5" fill="#5C6FFC"/>
<circle cx="1277.5" cy="102.5" r="12.5" fill="#5C6FFC"/>
<circle cx="1320.5" cy="59.5" r="12.5" fill="#5C6FFC"/>
<circle cx="1406.5" cy="59.5" r="12.5" fill="#5C6FFC"/>
<circle cx="1444.5" cy="59.5" r="12.5" fill="white"/>
<circle cx="1487.5" cy="59.5" r="12.5" fill="#5C6FFC"/>
<circle cx="1363.5" cy="59.5" r="12.5" fill="white"/>
<circle cx="1277.5" cy="59.5" r="12.5" fill="white"/>
<circle cx="42.5" cy="401.5" r="12.5" fill="#5C6FFC"/>
<circle cx="128.5" cy="401.5" r="12.5" fill="#5C6FFC"/>
<circle cx="166.5" cy="401.5" r="12.5" fill="white"/>
<circle cx="209.5" cy="401.5" r="12.5" fill="#5C6FFC"/>
<circle cx="85.5" cy="401.5" r="12.5" fill="white"/>
<circle cx="-0.5" cy="401.5" r="12.5" fill="white"/>
<circle cx="42.5" cy="447.5" r="12.5" fill="white"/>
<circle cx="128.5" cy="447.5" r="12.5" fill="white"/>
<circle cx="166.5" cy="447.5" r="12.5" fill="#5C6FFC"/>
<circle cx="209.5" cy="447.5" r="12.5" fill="white"/>
<circle cx="85.5" cy="447.5" r="12.5" fill="#5C6FFC"/>
<circle cx="-0.5" cy="447.5" r="12.5" fill="#5C6FFC"/>
</g>
<defs>
<filter id="filter0_d" x="390.488" y="111" width="222.816" height="286" filterUnits="userSpaceOnUse" color-interpolation-filters="sRGB">
<feFlood flood-opacity="0" result="BackgroundImageFix"/>
<feColorMatrix in="SourceAlpha" type="matrix" values="0 0 0 0 0 0 0 0 0 0 0 0 0 0 0 0 0 0 127 0"/>
<feOffset dy="4"/>
<feGaussianBlur stdDeviation="2"/>
<feColorMatrix type="matrix" values="0 0 0 0 0 0 0 0 0 0 0 0 0 0 0 0 0 0 0.25 0"/>
<feBlend mode="normal" in2="BackgroundImageFix" result="effect1_dropShadow"/>
<feBlend mode="normal" in="SourceGraphic" in2="effect1_dropShadow" result="shape"/>
</filter>
<clipPath id="clip0">
<rect width="1500" height="500" fill="white"/>
</clipPath>
</defs>
</svg>
