<svg width="710" height="286" viewBox="0 0 710 286" fill="none" xmlns="http://www.w3.org/2000/svg">
<path d="M266.4 67.3V98H257.2V26.4H299V35.2H266.4V58.7H295.8V67.3H266.4ZM317.046 26.4V98H307.846V26.4H317.046ZM371.256 98H362.456V91.2H362.056C360.656 93.6 358.49 95.6 355.556 97.2C352.69 98.8 349.69 99.6 346.556 99.6C340.556 99.6 335.923 97.9 332.656 94.5C329.456 91.0333 327.856 86.1333 327.856 79.8V49H337.056V79.2C337.256 87.2 341.29 91.2 349.156 91.2C352.823 91.2 355.89 89.7333 358.356 86.8C360.823 83.8 362.056 80.2333 362.056 76.1V49H371.256V98ZM401.855 98.8C397.855 98.8 394.522 97.5667 391.855 95.1C389.255 92.6333 387.922 89.2 387.855 84.8V57.4H379.255V49H387.855V34H397.055V49H409.055V57.4H397.055V81.8C397.055 85.0667 397.689 87.3 398.955 88.5C400.222 89.6333 401.655 90.2 403.255 90.2C403.989 90.2 404.689 90.1333 405.355 90C406.089 89.8 406.755 89.5667 407.355 89.3L410.255 97.5C407.855 98.3667 405.055 98.8 401.855 98.8ZM437.707 98.8C433.707 98.8 430.374 97.5667 427.707 95.1C425.107 92.6333 423.774 89.2 423.707 84.8V57.4H415.107V49H423.707V34H432.907V49H444.907V57.4H432.907V81.8C432.907 85.0667 433.54 87.3 434.807 88.5C436.074 89.6333 437.507 90.2 439.107 90.2C439.84 90.2 440.54 90.1333 441.207 90C441.94 89.8 442.607 89.5667 443.207 89.3L446.107 97.5C443.707 98.3667 440.907 98.8 437.707 98.8ZM475.17 99.6C467.97 99.6 462.037 97.1333 457.37 92.2C452.704 87.2667 450.37 81.0333 450.37 73.5C450.37 66.0333 452.637 59.8333 457.17 54.9C461.704 49.9 467.504 47.4 474.57 47.4C481.837 47.4 487.604 49.7667 491.87 54.5C496.204 59.1667 498.37 65.7333 498.37 74.2L498.27 75.2H459.77C459.904 80 461.504 83.8667 464.57 86.8C467.637 89.7333 471.304 91.2 475.57 91.2C481.437 91.2 486.037 88.2667 489.37 82.4L497.57 86.4C495.37 90.5333 492.304 93.7667 488.37 96.1C484.504 98.4333 480.104 99.6 475.17 99.6ZM460.47 67.6H488.57C488.304 64.2 486.904 61.4 484.37 59.2C481.904 56.9333 478.57 55.8 474.37 55.8C470.904 55.8 467.904 56.8667 465.37 59C462.904 61.1333 461.27 64 460.47 67.6ZM515.984 98H506.784V49H515.584V57H515.984C516.917 54.4 518.817 52.2 521.684 50.4C524.617 48.5333 527.484 47.6 530.284 47.6C532.95 47.6 535.217 48 537.084 48.8L534.284 57.7C533.15 57.2333 531.35 57 528.884 57C525.417 57 522.384 58.4 519.784 61.2C517.25 64 515.984 67.2667 515.984 71V98Z" fill="white"/>
<path d="M290.9 238.6C280.3 238.6 271.433 235.033 264.3 227.9C257.233 220.767 253.7 211.867 253.7 201.2C253.7 190.533 257.233 181.667 264.3 174.6C271.367 167.4 280.233 163.8 290.9 163.8C301.7 163.8 310.467 167.7 317.2 175.5L310.6 181.9C305.467 175.7 298.9 172.6 290.9 172.6C282.967 172.6 276.333 175.267 271 180.6C265.733 185.867 263.1 192.733 263.1 201.2C263.1 209.667 265.733 216.533 271 221.8C276.333 227.133 282.967 229.8 290.9 229.8C299.233 229.8 306.467 226.3 312.6 219.3L319.3 225.8C315.9 229.867 311.733 233.033 306.8 235.3C301.867 237.5 296.567 238.6 290.9 238.6ZM323.698 212.5C323.698 204.967 326.065 198.733 330.798 193.8C335.598 188.867 341.632 186.4 348.898 186.4C356.165 186.4 362.165 188.867 366.898 193.8C371.698 198.733 374.098 204.967 374.098 212.5C374.098 220.1 371.698 226.333 366.898 231.2C362.165 236.133 356.165 238.6 348.898 238.6C341.632 238.6 335.598 236.133 330.798 231.2C326.065 226.267 323.698 220.033 323.698 212.5ZM332.898 212.5C332.898 217.767 334.432 222.033 337.498 225.3C340.565 228.567 344.365 230.2 348.898 230.2C353.432 230.2 357.232 228.567 360.298 225.3C363.365 222.033 364.898 217.767 364.898 212.5C364.898 207.3 363.365 203.067 360.298 199.8C357.165 196.467 353.365 194.8 348.898 194.8C344.432 194.8 340.632 196.467 337.498 199.8C334.432 203.067 332.898 207.3 332.898 212.5ZM381.479 188H390.279V194.8H390.679C392.079 192.4 394.212 190.4 397.079 188.8C400.012 187.2 403.046 186.4 406.179 186.4C412.179 186.4 416.779 188.133 419.979 191.6C423.246 195 424.879 199.867 424.879 206.2V237H415.679V206.8C415.479 198.8 411.446 194.8 403.579 194.8C399.912 194.8 396.846 196.3 394.379 199.3C391.912 202.233 390.679 205.767 390.679 209.9V237H381.479V188ZM468.451 237H459.251V165.4H468.451V237ZM481.284 188H490.084V194.8H490.484C491.884 192.4 494.017 190.4 496.884 188.8C499.817 187.2 502.85 186.4 505.984 186.4C511.984 186.4 516.584 188.133 519.784 191.6C523.05 195 524.684 199.867 524.684 206.2V237H515.484V206.8C515.284 198.8 511.25 194.8 503.384 194.8C499.717 194.8 496.65 196.3 494.184 199.3C491.717 202.233 490.484 205.767 490.484 209.9V237H481.284V188ZM557.483 230.2C562.016 230.2 565.716 228.567 568.583 225.3C571.583 222.033 573.083 217.767 573.083 212.5C573.083 207.367 571.583 203.133 568.583 199.8C565.649 196.467 561.949 194.8 557.483 194.8C553.083 194.8 549.383 196.467 546.383 199.8C543.383 203.133 541.883 207.367 541.883 212.5C541.883 217.7 543.383 221.933 546.383 225.2C549.383 228.533 553.083 230.2 557.483 230.2ZM555.983 238.6C549.583 238.6 544.083 236.067 539.483 231C534.949 225.867 532.683 219.7 532.683 212.5C532.683 205.3 534.949 199.133 539.483 194C544.083 188.933 549.583 186.4 555.983 186.4C559.583 186.4 562.849 187.167 565.783 188.7C568.783 190.233 571.083 192.267 572.683 194.8H573.083L572.683 188V165.4H581.883V237H573.083V230.2H572.683C571.083 232.733 568.783 234.767 565.783 236.3C562.849 237.833 559.583 238.6 555.983 238.6ZM605 171.1C605 172.9 604.367 174.433 603.1 175.7C601.833 176.967 600.3 177.6 598.5 177.6C596.7 177.6 595.167 176.967 593.9 175.7C592.633 174.433 592 172.9 592 171.1C592 169.3 592.633 167.767 593.9 166.5C595.167 165.233 596.7 164.6 598.5 164.6C600.3 164.6 601.833 165.233 603.1 166.5C604.367 167.767 605 169.3 605 171.1ZM603.1 188V237H593.9V188H603.1ZM621.284 222C621.284 224.4 622.284 226.4 624.284 228C626.351 229.6 628.751 230.4 631.484 230.4C635.351 230.4 638.784 228.967 641.784 226.1C644.851 223.233 646.384 219.867 646.384 216C643.518 213.733 639.518 212.6 634.384 212.6C630.651 212.6 627.518 213.5 624.984 215.3C622.518 217.1 621.284 219.333 621.284 222ZM633.184 186.4C639.984 186.4 645.351 188.233 649.284 191.9C653.218 195.5 655.184 200.467 655.184 206.8V237H646.384V230.2H645.984C642.184 235.8 637.118 238.6 630.784 238.6C625.384 238.6 620.851 237 617.184 233.8C613.584 230.6 611.784 226.6 611.784 221.8C611.784 216.733 613.684 212.7 617.484 209.7C621.351 206.7 626.484 205.2 632.884 205.2C638.351 205.2 642.851 206.2 646.384 208.2V206.1C646.384 202.9 645.118 200.2 642.584 198C640.051 195.733 637.084 194.6 633.684 194.6C628.551 194.6 624.484 196.767 621.484 201.1L613.384 196C617.851 189.6 624.451 186.4 633.184 186.4Z" fill="white"/>
<g filter="url(#filter0_d)">
<path d="M137.982 131.341H210L144.241 200.704L142.385 202.662L144.241 204.621L209.998 274H137.98L108.742 243.159L70.355 202.663L137.982 131.341ZM10 139L137.98 4H209.998L46.0161 176.992L10 139Z" stroke="white" stroke-width="8"/>
</g>
<defs>
<filter id="filter0_d" x="0.488281" y="0" width="222.816" height="286" filterUnits="userSpaceOnUse" color-interpolation-filters="sRGB">
<feFlood flood-opacity="0" result="BackgroundImageFix"/>
<feColorMatrix in="SourceAlpha" type="matrix" values="0 0 0 0 0 0 0 0 0 0 0 0 0 0 0 0 0 0 127 0"/>
<feOffset dy="4"/>
<feGaussianBlur stdDeviation="2"/>
<feColorMatrix type="matrix" values="0 0 0 0 0 0 0 0 0 0 0 0 0 0 0 0 0 0 0.25 0"/>
<feBlend mode="normal" in2="BackgroundImageFix" result="effect1_dropShadow"/>
<feBlend mode="normal" in="SourceGraphic" in2="effect1_dropShadow" result="shape"/>
</filter>
</defs>
</svg>
